<svg width="52" height="52" viewBox="0 0 52 52" fill="none" xmlns="http://www.w3.org/2000/svg">
<rect width="52" height="52" rx="4" fill="#F0F7FE"/>
<path d="M29.75 17.25H32.25C32.9131 17.25 33.549 17.5134 34.0178 17.9822C34.4866 18.4511 34.75 19.087 34.75 19.75V29.9625C35.5844 30.2574 36.2877 30.8377 36.7355 31.601C37.1833 32.3643 37.3469 33.2613 37.1973 34.1335C37.0477 35.0057 36.5946 35.7969 35.918 36.3673C35.2414 36.9378 34.385 37.2506 33.5 37.2506C32.6151 37.2506 31.7586 36.9378 31.0821 36.3673C30.4055 35.7969 29.9524 35.0057 29.8028 34.1335C29.6532 33.2613 29.8168 32.3643 30.2646 31.601C30.7124 30.8377 31.4157 30.2574 32.25 29.9625V19.75H29.75V23.5L24.125 18.5L29.75 13.5V17.25ZM17.25 22.0375C16.4157 21.7426 15.7124 21.1623 15.2646 20.399C14.8168 19.6357 14.6532 18.7387 14.8028 17.8665C14.9524 16.9943 15.4055 16.2031 16.0821 15.6327C16.7586 15.0622 17.6151 14.7494 18.5 14.7494C19.385 14.7494 20.2414 15.0622 20.918 15.6327C21.5946 16.2031 22.0477 16.9943 22.1973 17.8665C22.3469 18.7387 22.1833 19.6357 21.7355 20.399C21.2877 21.1623 20.5844 21.7426 19.75 22.0375V29.9625C20.5844 30.2574 21.2877 30.8377 21.7355 31.601C22.1833 32.3643 22.3469 33.2613 22.1973 34.1335C22.0477 35.0057 21.5946 35.7969 20.918 36.3673C20.2414 36.9378 19.385 37.2506 18.5 37.2506C17.6151 37.2506 16.7586 36.9378 16.0821 36.3673C15.4055 35.7969 14.9524 35.0057 14.8028 34.1335C14.6532 33.2613 14.8168 32.3643 15.2646 31.601C15.7124 30.8377 16.4157 30.2574 17.25 29.9625V22.0375ZM18.5 19.75C18.8316 19.75 19.1495 19.6183 19.3839 19.3839C19.6183 19.1495 19.75 18.8315 19.75 18.5C19.75 18.1685 19.6183 17.8505 19.3839 17.6161C19.1495 17.3817 18.8316 17.25 18.5 17.25C18.1685 17.25 17.8506 17.3817 17.6162 17.6161C17.3817 17.8505 17.25 18.1685 17.25 18.5C17.25 18.8315 17.3817 19.1495 17.6162 19.3839C17.8506 19.6183 18.1685 19.75 18.5 19.75ZM18.5 34.75C18.8316 34.75 19.1495 34.6183 19.3839 34.3839C19.6183 34.1495 19.75 33.8315 19.75 33.5C19.75 33.1685 19.6183 32.8505 19.3839 32.6161C19.1495 32.3817 18.8316 32.25 18.5 32.25C18.1685 32.25 17.8506 32.3817 17.6162 32.6161C17.3817 32.8505 17.25 33.1685 17.25 33.5C17.25 33.8315 17.3817 34.1495 17.6162 34.3839C17.8506 34.6183 18.1685 34.75 18.5 34.75ZM33.5 34.75C33.8316 34.75 34.1495 34.6183 34.3839 34.3839C34.6183 34.1495 34.75 33.8315 34.75 33.5C34.75 33.1685 34.6183 32.8505 34.3839 32.6161C34.1495 32.3817 33.8316 32.25 33.5 32.25C33.1685 32.25 32.8506 32.3817 32.6162 32.6161C32.3817 32.8505 32.25 33.1685 32.25 33.5C32.25 33.8315 32.3817 34.1495 32.6162 34.3839C32.8506 34.6183 33.1685 34.75 33.5 34.75Z" fill="#459FF2"/>
</svg>
