<svg width="208" height="207" viewBox="0 0 208 207" fill="none" xmlns="http://www.w3.org/2000/svg">
<g clip-path="url(#clip0_287_90927)">
<path d="M66.3824 35.2275C76.142 35.2275 84.0813 27.3248 84.0813 17.6138C84.0813 7.90116 76.142 0 66.3824 0C56.6245 0 48.6836 7.90116 48.6836 17.6138C48.6836 27.3248 56.6245 35.2275 66.3824 35.2275ZM66.3824 8.12542C71.6399 8.12542 75.9166 12.3816 75.9166 17.6138C75.9166 22.8444 71.6399 27.1005 66.3824 27.1005C61.1266 27.1005 56.8499 22.8444 56.8499 17.6138C56.8499 12.3816 61.1266 8.12542 66.3824 8.12542Z" fill="#4B4B4B"/>
<path d="M114.8 0C105.041 0 97.1016 7.90116 97.1016 17.6138C97.1016 27.3248 105.041 35.2275 114.8 35.2275C124.56 35.2275 132.499 27.3248 132.499 17.6138C132.499 7.90116 124.558 0 114.8 0ZM114.8 27.1005C109.543 27.1005 105.266 22.8444 105.266 17.6138C105.266 12.3816 109.543 8.12542 114.8 8.12542C120.056 8.12542 124.333 12.3816 124.333 17.6138C124.333 22.8444 120.056 27.1005 114.8 27.1005Z" fill="#4B4B4B"/>
<path d="M163.222 35.2275C172.982 35.2275 180.921 27.3248 180.921 17.6138C180.921 7.90116 172.982 0 163.222 0C153.463 0 145.523 7.90116 145.523 17.6138C145.523 27.3248 153.463 35.2275 163.222 35.2275ZM163.222 8.12542C168.478 8.12542 172.756 12.3816 172.756 17.6138C172.756 22.8444 168.478 27.1005 163.222 27.1005C157.965 27.1005 153.688 22.8444 153.688 17.6138C153.688 12.3816 157.965 8.12542 163.222 8.12542Z" fill="#4B4B4B"/>
<path d="M114.8 41.8967C105.041 41.8967 97.1016 49.7978 97.1016 59.5104C97.1016 69.223 105.041 77.1242 114.8 77.1242C124.56 77.1242 132.499 69.223 132.499 59.5104C132.499 49.7978 124.558 41.8967 114.8 41.8967ZM114.8 68.9988C109.543 68.9988 105.266 64.7426 105.266 59.5104C105.266 54.2798 109.543 50.0237 114.8 50.0237C120.056 50.0237 124.333 54.2798 124.333 59.5104C124.333 64.7426 120.056 68.9988 114.8 68.9988Z" fill="#4B4B4B"/>
<path d="M163.222 41.8967C153.463 41.8967 145.523 49.7978 145.523 59.5104C145.523 69.223 153.463 77.1242 163.222 77.1242C172.982 77.1242 180.921 69.223 180.921 59.5104C180.921 49.7978 172.982 41.8967 163.222 41.8967ZM163.222 68.9988C157.965 68.9988 153.688 64.7426 153.688 59.5104C153.688 54.2798 157.965 50.0237 163.222 50.0237C168.478 50.0237 172.756 54.2798 172.756 59.5104C172.756 64.7426 168.478 68.9988 163.222 68.9988Z" fill="#4B4B4B"/>
<path d="M163.222 83.7934C153.463 83.7934 145.523 91.6961 145.523 101.407C145.523 111.12 153.463 119.021 163.222 119.021C172.982 119.021 180.921 111.12 180.921 101.407C180.921 91.6961 172.982 83.7934 163.222 83.7934ZM163.222 110.896C157.965 110.896 153.688 106.639 153.688 101.407C153.688 96.175 157.965 91.9204 163.222 91.9204C168.478 91.9204 172.756 96.175 172.756 101.407C172.756 106.639 168.478 110.896 163.222 110.896Z" fill="#4B4B4B"/>
<path d="M123.667 165.047L125.219 162.917C127.736 159.463 129.295 156.369 129.295 151.631C129.295 149.387 127.467 147.568 125.213 147.568C122.958 147.568 121.13 149.387 121.13 151.631C121.13 154.002 120.565 155.463 118.61 158.147L117.056 160.278C115.233 162.783 114.268 165.741 114.268 168.834V179.728H63.2792V171.053C63.2792 166.337 61.4337 161.904 58.0837 158.571L50.6252 151.148C47.7989 148.335 46.2422 144.596 46.2422 140.619V136.47C46.2422 128.899 44.7759 121.51 41.8814 114.509L35.1656 98.2548C34.8561 97.5078 34.9307 96.655 35.3655 95.9743C35.9638 95.0331 37.1286 94.6003 38.1997 94.9194C41.6989 95.9648 44.5759 98.3022 46.3057 101.503L47.791 104.254C49.9476 108.25 51.4679 112.538 52.3074 116.996L53.0548 120.96C53.442 123.023 55.3463 124.453 57.4442 124.258C59.5437 124.063 61.1496 122.31 61.1496 120.212V54.0382C61.1496 52.9358 61.5622 51.8824 62.3128 51.0707L62.3668 51.0107C63.1634 50.1484 64.252 49.6446 65.4295 49.5972C66.6117 49.5483 67.7321 49.9589 68.6001 50.7533C69.5031 51.5808 70.0204 52.7574 70.0204 53.9797V106.319C70.0204 108.563 71.8485 110.382 74.1035 110.382C76.3585 110.382 78.1867 108.563 78.1867 106.319V81.6439C78.1867 80.5937 78.6548 79.6098 79.4736 78.945C81.3557 77.4162 84.0503 77.5726 85.7435 79.3066C86.5909 80.1736 87.0575 81.3186 87.0575 82.5283V108.673C87.0575 110.917 88.8856 112.737 91.1406 112.737C93.394 112.737 95.2221 110.917 95.2221 108.673V92.6547C95.2221 91.0943 95.5966 89.684 96.3345 88.4585C96.9027 87.5141 97.804 86.8508 98.872 86.5918C99.8876 86.3455 100.927 86.505 101.794 87.0356L102.09 87.2204C103.196 87.9089 103.856 89.0934 103.856 90.3916V112.912C103.856 115.156 105.685 116.976 107.94 116.976C110.195 116.976 112.023 115.156 112.023 112.912V105.706C112.023 104.224 112.472 102.798 113.321 101.581C114.321 100.148 115.993 99.4108 117.583 99.7046C118.359 99.8467 119.084 100.2 119.678 100.728C120.602 101.548 121.13 102.723 121.13 103.953V119.608C121.13 121.852 122.958 123.672 125.213 123.672C127.467 123.672 129.295 121.852 129.295 119.608V103.953C129.295 100.409 127.771 97.023 125.113 94.6635C123.402 93.1458 121.312 92.1256 119.067 91.7134C116.66 91.2712 114.216 91.5839 112.023 92.5283V90.3931C112.023 86.2744 109.926 82.5125 106.418 80.33L106.081 80.1215C103.334 78.438 100.088 77.9326 96.936 78.6986C96.2092 78.8739 95.5078 79.1139 94.8365 79.4093C94.2954 77.2567 93.1909 75.2731 91.6008 73.6433C88.0064 69.962 82.7712 68.8613 78.1867 70.4753V53.9797C78.1867 50.4927 76.7077 47.1383 74.1305 44.7757C71.6565 42.5094 68.4462 41.3344 65.0883 41.4782C61.7304 41.6171 58.628 43.0495 56.354 45.5132L56.3 45.5732C54.1609 47.8884 52.9834 50.8954 52.9834 54.0397V96.7592C50.1841 92.1051 45.8026 88.7065 40.5452 87.1367C35.9844 85.7738 31.0158 87.6199 28.4672 91.6266C26.6169 94.5309 26.2979 98.1648 27.6135 101.345L34.3309 117.599C36.816 123.616 38.0775 129.965 38.0775 136.47V140.619C38.0775 146.765 40.4833 152.546 44.8505 156.893L52.3105 164.318C54.118 166.116 55.1146 168.509 55.1146 171.053V179.84H52.7628C51.6789 179.842 50.6395 180.27 49.8746 181.034C49.1081 181.797 48.6797 182.831 48.6813 183.91L48.7114 202.944C48.7146 205.185 50.5411 207.001 52.7945 207.001H52.7961L123.655 206.98C124.739 206.979 125.778 206.551 126.543 205.786C127.309 205.023 127.738 203.989 127.736 202.91L127.706 183.877C127.703 181.636 125.876 179.82 123.623 179.82L122.433 179.821V168.836C122.434 167.465 122.861 166.156 123.667 165.047ZM56.8713 198.872L56.8538 187.966L119.548 187.947L119.565 198.855L56.8713 198.872Z" fill="#4B4B4B"/>
<path d="M35.6126 39.2419L41.8999 42.8538C42.5426 43.2233 43.244 43.3986 43.9359 43.3986C45.3483 43.3986 46.7194 42.6706 47.4763 41.3676C48.6046 39.4235 47.935 36.9393 45.9815 35.8165L39.6941 32.2046C37.7422 31.0818 35.246 31.7482 34.1177 33.6907C32.991 35.6348 33.6591 38.1191 35.6126 39.2419Z" fill="#4B4B4B"/>
<path d="M35.3835 60.5006C35.6517 60.5006 35.9231 60.4738 36.196 60.4201L43.3117 58.9908C45.5223 58.547 46.9537 56.4055 46.5078 54.2056C46.0619 52.0056 43.9084 50.5843 41.6978 51.0265L34.5821 52.4541C32.3715 52.8979 30.9401 55.041 31.3861 57.2394C31.7765 59.1677 33.4808 60.5006 35.3835 60.5006Z" fill="#4B4B4B"/>
<path d="M128.982 133.986C128.138 131.906 125.757 130.902 123.667 131.743C121.576 132.584 120.567 134.951 121.412 137.032L121.45 137.126C122.092 138.706 123.621 139.667 125.235 139.667C125.746 139.667 126.264 139.57 126.765 139.37C128.855 138.528 129.864 136.161 129.02 134.079L128.982 133.986Z" fill="#4B4B4B"/>
</g>
<defs>
<clipPath id="clip0_287_90927">
<rect width="208" height="207" fill="white"/>
</clipPath>
</defs>
</svg>
